<?xml version="1.0" encoding="UTF-8" standalone="no"?>
<!DOCTYPE svg PUBLIC "-//W3C//DTD SVG 1.1//EN"
 "http://www.w3.org/Graphics/SVG/1.1/DTD/svg11.dtd">
<!-- Generated by graphviz version 12.2.1 (0)
 -->
<!-- Pages: 1 -->
<svg width="1272pt" height="1124pt"
 viewBox="0.00 0.00 1271.92 1124.00" xmlns="http://www.w3.org/2000/svg" xmlns:xlink="http://www.w3.org/1999/xlink">
<g id="graph0" class="graph" transform="scale(1 1) rotate(0) translate(4 1120)">
<polygon fill="white" stroke="none" points="-4,4 -4,-1120 1267.92,-1120 1267.92,4 -4,4"/>
<!-- START.MES -->
<g id="node1" class="node">
<title>START.MES</title>
<ellipse fill="none" stroke="black" cx="538.96" cy="-1098" rx="61.08" ry="18"/>
<text text-anchor="middle" x="538.96" y="-1092.95" font-family="Times,serif" font-size="14.00">START.MES</text>
</g>
<!-- SELECT.MES -->
<g id="node2" class="node">
<title>SELECT.MES</title>
<ellipse fill="none" stroke="black" cx="538.96" cy="-1026" rx="66.19" ry="18"/>
<text text-anchor="middle" x="538.96" y="-1020.95" font-family="Times,serif" font-size="14.00">SELECT.MES</text>
</g>
<!-- START.MES&#45;&gt;SELECT.MES -->
<g id="edge1" class="edge">
<title>START.MES&#45;&gt;SELECT.MES</title>
<path fill="none" stroke="black" d="M538.96,-1079.7C538.96,-1072.41 538.96,-1063.73 538.96,-1055.54"/>
<polygon fill="black" stroke="black" points="542.46,-1055.62 538.96,-1045.62 535.46,-1055.62 542.46,-1055.62"/>
</g>
<!-- 000.MES -->
<g id="node3" class="node">
<title>000.MES</title>
<ellipse fill="none" stroke="black" cx="538.96" cy="-954" rx="46.75" ry="18"/>
<text text-anchor="middle" x="538.96" y="-948.95" font-family="Times,serif" font-size="14.00">000.MES</text>
</g>
<!-- SELECT.MES&#45;&gt;000.MES -->
<g id="edge2" class="edge">
<title>SELECT.MES&#45;&gt;000.MES</title>
<path fill="none" stroke="black" d="M538.96,-1007.7C538.96,-1000.41 538.96,-991.73 538.96,-983.54"/>
<polygon fill="black" stroke="black" points="542.46,-983.62 538.96,-973.62 535.46,-983.62 542.46,-983.62"/>
</g>
<!-- 001.MES -->
<g id="node4" class="node">
<title>001.MES</title>
<ellipse fill="none" stroke="black" cx="538.96" cy="-882" rx="46.75" ry="18"/>
<text text-anchor="middle" x="538.96" y="-876.95" font-family="Times,serif" font-size="14.00">001.MES</text>
</g>
<!-- 000.MES&#45;&gt;001.MES -->
<g id="edge3" class="edge">
<title>000.MES&#45;&gt;001.MES</title>
<path fill="none" stroke="black" d="M538.96,-935.7C538.96,-928.41 538.96,-919.73 538.96,-911.54"/>
<polygon fill="black" stroke="black" points="542.46,-911.62 538.96,-901.62 535.46,-911.62 542.46,-911.62"/>
</g>
<!-- 001_0.MES -->
<g id="node5" class="node">
<title>001_0.MES</title>
<ellipse fill="none" stroke="black" cx="538.96" cy="-810" rx="55.96" ry="18"/>
<text text-anchor="middle" x="538.96" y="-804.95" font-family="Times,serif" font-size="14.00">001_0.MES</text>
</g>
<!-- 001.MES&#45;&gt;001_0.MES -->
<g id="edge4" class="edge">
<title>001.MES&#45;&gt;001_0.MES</title>
<path fill="none" stroke="black" d="M533.04,-863.7C532.29,-856.41 532.05,-847.73 532.31,-839.54"/>
<polygon fill="black" stroke="black" points="535.8,-839.82 532.96,-829.61 528.81,-839.36 535.8,-839.82"/>
</g>
<!-- 001_1.MES -->
<g id="node6" class="node">
<title>001_1.MES</title>
<ellipse fill="none" stroke="black" cx="55.96" cy="-666" rx="55.96" ry="18"/>
<text text-anchor="middle" x="55.96" y="-660.95" font-family="Times,serif" font-size="14.00">001_1.MES</text>
</g>
<!-- 001.MES&#45;&gt;001_1.MES -->
<g id="edge5" class="edge">
<title>001.MES&#45;&gt;001_1.MES</title>
<path fill="none" stroke="black" d="M497.31,-873.28C457.38,-864.45 396.29,-848.52 345.96,-828 246.67,-787.51 137.54,-723.29 85.9,-689.49"/>
<polygon fill="black" stroke="black" points="87.88,-686.61 77.62,-683.99 84.01,-692.44 87.88,-686.61"/>
</g>
<!-- 001_2.MES -->
<g id="node7" class="node">
<title>001_2.MES</title>
<ellipse fill="none" stroke="black" cx="185.96" cy="-666" rx="55.96" ry="18"/>
<text text-anchor="middle" x="185.96" y="-660.95" font-family="Times,serif" font-size="14.00">001_2.MES</text>
</g>
<!-- 001.MES&#45;&gt;001_2.MES -->
<g id="edge6" class="edge">
<title>001.MES&#45;&gt;001_2.MES</title>
<path fill="none" stroke="black" d="M502.47,-870.44C474.93,-860.76 437.04,-845.32 405.96,-828 330.5,-785.95 249.42,-724.68 209.93,-691.15"/>
<polygon fill="black" stroke="black" points="212.25,-688.53 202.4,-684.63 207.67,-693.82 212.25,-688.53"/>
</g>
<!-- 001_3.MES -->
<g id="node8" class="node">
<title>001_3.MES</title>
<ellipse fill="none" stroke="black" cx="315.96" cy="-666" rx="55.96" ry="18"/>
<text text-anchor="middle" x="315.96" y="-660.95" font-family="Times,serif" font-size="14.00">001_3.MES</text>
</g>
<!-- 001.MES&#45;&gt;001_3.MES -->
<g id="edge7" class="edge">
<title>001.MES&#45;&gt;001_3.MES</title>
<path fill="none" stroke="black" d="M507.4,-868.33C488.33,-858.53 464.52,-843.97 445.96,-828 397.51,-786.3 351.03,-727.39 328.79,-693.6"/>
<polygon fill="black" stroke="black" points="331.81,-691.82 323.5,-685.25 325.89,-695.57 331.81,-691.82"/>
</g>
<!-- 001_4.MES -->
<g id="node9" class="node">
<title>001_4.MES</title>
<ellipse fill="none" stroke="black" cx="445.96" cy="-666" rx="55.96" ry="18"/>
<text text-anchor="middle" x="445.96" y="-660.95" font-family="Times,serif" font-size="14.00">001_4.MES</text>
</g>
<!-- 001.MES&#45;&gt;001_4.MES -->
<g id="edge8" class="edge">
<title>001.MES&#45;&gt;001_4.MES</title>
<path fill="none" stroke="black" d="M508.09,-868.04C492.42,-858.78 474.89,-844.97 464.96,-828 440.71,-786.56 436.28,-729.56 438.67,-695.68"/>
<polygon fill="black" stroke="black" points="442.14,-696.12 439.68,-685.81 435.18,-695.41 442.14,-696.12"/>
</g>
<!-- 001_5.MES -->
<g id="node10" class="node">
<title>001_5.MES</title>
<ellipse fill="none" stroke="black" cx="947.96" cy="-666" rx="55.96" ry="18"/>
<text text-anchor="middle" x="947.96" y="-660.95" font-family="Times,serif" font-size="14.00">001_5.MES</text>
</g>
<!-- 001.MES&#45;&gt;001_5.MES -->
<g id="edge9" class="edge">
<title>001.MES&#45;&gt;001_5.MES</title>
<path fill="none" stroke="black" d="M563.44,-866.29C631.35,-828.66 821.87,-728.9 906.59,-686.5"/>
<polygon fill="black" stroke="black" points="908.12,-689.65 915.51,-682.06 904.99,-683.39 908.12,-689.65"/>
</g>
<!-- 001_6.MES -->
<g id="node11" class="node">
<title>001_6.MES</title>
<ellipse fill="none" stroke="black" cx="1077.96" cy="-666" rx="55.96" ry="18"/>
<text text-anchor="middle" x="1077.96" y="-660.95" font-family="Times,serif" font-size="14.00">001_6.MES</text>
</g>
<!-- 001.MES&#45;&gt;001_6.MES -->
<g id="edge10" class="edge">
<title>001.MES&#45;&gt;001_6.MES</title>
<path fill="none" stroke="black" d="M571.78,-868.72C602.61,-858.51 649.57,-843.24 689.96,-828 815.61,-780.59 960.94,-716.07 1032.96,-685.07"/>
<polygon fill="black" stroke="black" points="1034.25,-688.32 1042.07,-681.17 1031.5,-681.89 1034.25,-688.32"/>
</g>
<!-- 001_7.MES -->
<g id="node12" class="node">
<title>001_7.MES</title>
<ellipse fill="none" stroke="black" cx="1207.96" cy="-666" rx="55.96" ry="18"/>
<text text-anchor="middle" x="1207.96" y="-660.95" font-family="Times,serif" font-size="14.00">001_7.MES</text>
</g>
<!-- 001.MES&#45;&gt;001_7.MES -->
<g id="edge11" class="edge">
<title>001.MES&#45;&gt;001_7.MES</title>
<path fill="none" stroke="black" d="M578.42,-871.97C622.61,-862.51 695.83,-846.49 757.96,-828 907.48,-783.51 1079.95,-715.54 1161.22,-684.08"/>
<polygon fill="black" stroke="black" points="1162.12,-687.48 1170.19,-680.61 1159.6,-680.95 1162.12,-687.48"/>
</g>
<!-- 002.MES -->
<g id="node13" class="node">
<title>002.MES</title>
<ellipse fill="none" stroke="black" cx="575.96" cy="-738" rx="46.75" ry="18"/>
<text text-anchor="middle" x="575.96" y="-732.95" font-family="Times,serif" font-size="14.00">002.MES</text>
</g>
<!-- 001.MES&#45;&gt;002.MES -->
<g id="edge12" class="edge">
<title>001.MES&#45;&gt;002.MES</title>
<path fill="none" stroke="black" d="M565.8,-866.91C579.97,-857.88 596.02,-844.7 603.96,-828 613.59,-807.72 604.59,-783.32 594.3,-765.2"/>
<polygon fill="black" stroke="black" points="597.41,-763.57 589.19,-756.88 591.45,-767.23 597.41,-763.57"/>
</g>
<!-- 001_0.MES&#45;&gt;001.MES -->
<g id="edge13" class="edge">
<title>001_0.MES&#45;&gt;001.MES</title>
<path fill="none" stroke="black" d="M544.85,-828.1C545.61,-835.37 545.87,-844.04 545.61,-852.24"/>
<polygon fill="black" stroke="black" points="542.12,-851.98 544.97,-862.19 549.11,-852.43 542.12,-851.98"/>
</g>
<!-- 001_0.MES&#45;&gt;002.MES -->
<g id="edge14" class="edge">
<title>001_0.MES&#45;&gt;002.MES</title>
<path fill="none" stroke="black" d="M542.19,-791.7C545.64,-783.58 550.64,-773.74 555.8,-764.76"/>
<polygon fill="black" stroke="black" points="558.66,-766.8 560.85,-756.44 552.67,-763.18 558.66,-766.8"/>
</g>
<!-- 001_1.MES&#45;&gt;001.MES -->
<g id="edge15" class="edge">
<title>001_1.MES&#45;&gt;001.MES</title>
<path fill="none" stroke="black" d="M84.45,-681.96C137.93,-712.81 256.68,-784.26 363.96,-828 405.62,-844.99 454.66,-858.83 490.31,-868.1"/>
<polygon fill="black" stroke="black" points="489.36,-871.47 499.92,-870.57 491.1,-864.69 489.36,-871.47"/>
</g>
<!-- 001_1.MES&#45;&gt;002.MES -->
<g id="edge16" class="edge">
<title>001_1.MES&#45;&gt;002.MES</title>
<path fill="none" stroke="black" d="M100.55,-677.35C110.27,-679.79 120.44,-682.21 129.96,-684 268.75,-710.1 433.94,-725.49 519.11,-732.48"/>
<polygon fill="black" stroke="black" points="518.57,-735.94 528.82,-733.26 519.14,-728.97 518.57,-735.94"/>
</g>
<!-- 001_2.MES&#45;&gt;001.MES -->
<g id="edge17" class="edge">
<title>001_2.MES&#45;&gt;001.MES</title>
<path fill="none" stroke="black" d="M210.34,-682.68C252.55,-713.31 341.6,-782.11 423.96,-828 448.21,-841.51 476.61,-853.88 499.2,-863.26"/>
<polygon fill="black" stroke="black" points="497.81,-866.47 508.39,-867.05 500.47,-860 497.81,-866.47"/>
</g>
<!-- 001_2.MES&#45;&gt;002.MES -->
<g id="edge18" class="edge">
<title>001_2.MES&#45;&gt;002.MES</title>
<path fill="none" stroke="black" d="M230.96,-677.14C240.57,-679.56 250.6,-682.02 259.96,-684 351.31,-703.35 458.39,-719.58 521.61,-728.8"/>
<polygon fill="black" stroke="black" points="520.99,-732.25 531.39,-730.22 521.99,-725.32 520.99,-732.25"/>
</g>
<!-- 001_3.MES&#45;&gt;001.MES -->
<g id="edge19" class="edge">
<title>001_3.MES&#45;&gt;001.MES</title>
<path fill="none" stroke="black" d="M332.8,-683.48C358.9,-714.31 410.22,-781.75 463.96,-828 477.52,-839.68 493.9,-850.6 507.98,-859.46"/>
<polygon fill="black" stroke="black" points="506.12,-862.42 516.46,-864.73 509.81,-856.48 506.12,-862.42"/>
</g>
<!-- 001_3.MES&#45;&gt;002.MES -->
<g id="edge20" class="edge">
<title>001_3.MES&#45;&gt;002.MES</title>
<path fill="none" stroke="black" d="M359.92,-677.49C406.92,-689.57 481,-709.46 529.09,-722.89"/>
<polygon fill="black" stroke="black" points="528.09,-726.24 538.67,-725.58 529.98,-719.51 528.09,-726.24"/>
</g>
<!-- 001_4.MES&#45;&gt;001.MES -->
<g id="edge21" class="edge">
<title>001_4.MES&#45;&gt;001.MES</title>
<path fill="none" stroke="black" d="M450.47,-684.31C453.5,-715.33 455.73,-781.48 482.96,-828 489.83,-839.74 500.34,-849.97 510.48,-858.22"/>
<polygon fill="black" stroke="black" points="508.32,-860.98 518.38,-864.32 512.6,-855.44 508.32,-860.98"/>
</g>
<!-- 001_4.MES&#45;&gt;002.MES -->
<g id="edge22" class="edge">
<title>001_4.MES&#45;&gt;002.MES</title>
<path fill="none" stroke="black" d="M477.89,-681.21C497.87,-691.25 523.42,-704.89 543.49,-716.16"/>
<polygon fill="black" stroke="black" points="541.69,-719.16 552.11,-721.06 545.15,-713.08 541.69,-719.16"/>
</g>
<!-- 001_5.MES&#45;&gt;001.MES -->
<g id="edge23" class="edge">
<title>001_5.MES&#45;&gt;001.MES</title>
<path fill="none" stroke="black" d="M922.3,-682.36C852.83,-720.78 661.54,-820.92 578.33,-862.49"/>
<polygon fill="black" stroke="black" points="576.78,-859.35 569.38,-866.94 579.9,-865.62 576.78,-859.35"/>
</g>
<!-- 001_5.MES&#45;&gt;002.MES -->
<g id="edge24" class="edge">
<title>001_5.MES&#45;&gt;002.MES</title>
<path fill="none" stroke="black" d="M910.48,-679.65C904.33,-681.2 898,-682.69 891.96,-684 801.51,-703.6 694.83,-720.67 631.33,-729.85"/>
<polygon fill="black" stroke="black" points="630.89,-726.37 621.49,-731.25 631.88,-733.3 630.89,-726.37"/>
</g>
<!-- 001_6.MES&#45;&gt;001.MES -->
<g id="edge25" class="edge">
<title>001_6.MES&#45;&gt;001.MES</title>
<path fill="none" stroke="black" d="M1050.43,-681.91C989.24,-711.48 838.05,-778.91 707.96,-828 668.18,-843.01 622.02,-858.05 587.89,-868.25"/>
<polygon fill="black" stroke="black" points="587.31,-864.78 578.71,-870.96 589.29,-871.49 587.31,-864.78"/>
</g>
<!-- 001_6.MES&#45;&gt;002.MES -->
<g id="edge26" class="edge">
<title>001_6.MES&#45;&gt;002.MES</title>
<path fill="none" stroke="black" d="M1040.89,-679.85C1034.61,-681.38 1028.15,-682.82 1021.96,-684 883.79,-710.32 718.43,-726.19 633.04,-733.03"/>
<polygon fill="black" stroke="black" points="632.98,-729.52 623.29,-733.8 633.53,-736.5 632.98,-729.52"/>
</g>
<!-- 001_7.MES&#45;&gt;001.MES -->
<g id="edge27" class="edge">
<title>001_7.MES&#45;&gt;001.MES</title>
<path fill="none" stroke="black" d="M1177.64,-681.53C1107.59,-711.73 929.66,-782.26 775.96,-828 713.93,-846.46 640.86,-862.46 592.31,-871.92"/>
<polygon fill="black" stroke="black" points="591.77,-868.46 582.61,-873.78 593.09,-875.33 591.77,-868.46"/>
</g>
<!-- 001_7.MES&#45;&gt;002.MES -->
<g id="edge28" class="edge">
<title>001_7.MES&#45;&gt;002.MES</title>
<path fill="none" stroke="black" d="M1171.26,-679.92C1164.88,-681.47 1158.28,-682.89 1151.96,-684 964.5,-717.05 738.3,-730.37 633.83,-734.94"/>
<polygon fill="black" stroke="black" points="633.96,-731.43 624.12,-735.35 634.26,-738.42 633.96,-731.43"/>
</g>
<!-- 002.MES&#45;&gt;001_0.MES -->
<g id="edge29" class="edge">
<title>002.MES&#45;&gt;001_0.MES</title>
<path fill="none" stroke="black" d="M572.67,-756.45C569.29,-764.36 564.47,-773.88 559.46,-782.63"/>
<polygon fill="black" stroke="black" points="556.51,-780.74 554.35,-791.11 562.51,-784.36 556.51,-780.74"/>
</g>
<!-- 002.MES&#45;&gt;001_1.MES -->
<g id="edge30" class="edge">
<title>002.MES&#45;&gt;001_1.MES</title>
<path fill="none" stroke="black" d="M529.77,-734.15C445.75,-728.17 263.19,-712.44 111.96,-684 109.35,-683.51 106.68,-682.97 104.01,-682.4"/>
<polygon fill="black" stroke="black" points="105.03,-679.04 94.5,-680.21 103.46,-685.86 105.03,-679.04"/>
</g>
<!-- 002.MES&#45;&gt;001_2.MES -->
<g id="edge31" class="edge">
<title>002.MES&#45;&gt;001_2.MES</title>
<path fill="none" stroke="black" d="M531.53,-731.89C467.07,-723.54 344.59,-705.74 241.96,-684 239.5,-683.48 237,-682.93 234.48,-682.35"/>
<polygon fill="black" stroke="black" points="235.44,-678.98 224.9,-680.05 233.8,-685.79 235.44,-678.98"/>
</g>
<!-- 002.MES&#45;&gt;001_3.MES -->
<g id="edge32" class="edge">
<title>002.MES&#45;&gt;001_3.MES</title>
<path fill="none" stroke="black" d="M536.95,-727.78C491.43,-716.15 416.27,-695.99 366.38,-682.1"/>
<polygon fill="black" stroke="black" points="367.54,-678.79 356.97,-679.47 365.66,-685.53 367.54,-678.79"/>
</g>
<!-- 002.MES&#45;&gt;001_4.MES -->
<g id="edge33" class="edge">
<title>002.MES&#45;&gt;001_4.MES</title>
<path fill="none" stroke="black" d="M546.09,-723.83C526.17,-713.87 500.09,-699.98 479.48,-688.43"/>
<polygon fill="black" stroke="black" points="481.3,-685.44 470.87,-683.55 477.84,-691.53 481.3,-685.44"/>
</g>
<!-- 002.MES&#45;&gt;001_5.MES -->
<g id="edge34" class="edge">
<title>002.MES&#45;&gt;001_5.MES</title>
<path fill="none" stroke="black" d="M618.3,-729.91C676.33,-720.75 783.3,-703.64 873.96,-684 879.8,-682.73 885.91,-681.29 892.01,-679.8"/>
<polygon fill="black" stroke="black" points="892.62,-683.26 901.47,-677.44 890.93,-676.46 892.62,-683.26"/>
</g>
<!-- 002.MES&#45;&gt;001_6.MES -->
<g id="edge35" class="edge">
<title>002.MES&#45;&gt;001_6.MES</title>
<path fill="none" stroke="black" d="M621.46,-733.05C700.05,-726.23 865.63,-710.35 1003.96,-684 1009.9,-682.87 1016.11,-681.5 1022.3,-680.03"/>
<polygon fill="black" stroke="black" points="1023.01,-683.46 1031.89,-677.68 1021.35,-676.66 1023.01,-683.46"/>
</g>
<!-- 002.MES&#45;&gt;001_7.MES -->
<g id="edge36" class="edge">
<title>002.MES&#45;&gt;001_7.MES</title>
<path fill="none" stroke="black" d="M622.41,-734.99C718.61,-730.46 945.8,-717.17 1133.96,-684 1140.14,-682.91 1146.59,-681.53 1153.02,-680.02"/>
<polygon fill="black" stroke="black" points="1153.39,-683.54 1162.27,-677.77 1151.73,-676.73 1153.39,-683.54"/>
</g>
<!-- 002_0.MES -->
<g id="node14" class="node">
<title>002_0.MES</title>
<ellipse fill="none" stroke="black" cx="575.96" cy="-666" rx="55.96" ry="18"/>
<text text-anchor="middle" x="575.96" y="-660.95" font-family="Times,serif" font-size="14.00">002_0.MES</text>
</g>
<!-- 002.MES&#45;&gt;002_0.MES -->
<g id="edge37" class="edge">
<title>002.MES&#45;&gt;002_0.MES</title>
<path fill="none" stroke="black" d="M570.04,-719.7C569.29,-712.41 569.05,-703.73 569.31,-695.54"/>
<polygon fill="black" stroke="black" points="572.8,-695.82 569.96,-685.61 565.81,-695.36 572.8,-695.82"/>
</g>
<!-- 002_1.MES -->
<g id="node15" class="node">
<title>002_1.MES</title>
<ellipse fill="none" stroke="black" cx="705.96" cy="-666" rx="55.96" ry="18"/>
<text text-anchor="middle" x="705.96" y="-660.95" font-family="Times,serif" font-size="14.00">002_1.MES</text>
</g>
<!-- 002.MES&#45;&gt;002_1.MES -->
<g id="edge38" class="edge">
<title>002.MES&#45;&gt;002_1.MES</title>
<path fill="none" stroke="black" d="M598.49,-721.81C616.56,-711.4 642.24,-697.49 664.01,-686.3"/>
<polygon fill="black" stroke="black" points="665.35,-689.55 672.67,-681.89 662.17,-683.31 665.35,-689.55"/>
</g>
<!-- 101.MES -->
<g id="node16" class="node">
<title>101.MES</title>
<ellipse fill="none" stroke="black" cx="826.96" cy="-666" rx="46.75" ry="18"/>
<text text-anchor="middle" x="826.96" y="-660.95" font-family="Times,serif" font-size="14.00">101.MES</text>
</g>
<!-- 002.MES&#45;&gt;101.MES -->
<g id="edge39" class="edge">
<title>002.MES&#45;&gt;101.MES</title>
<path fill="none" stroke="black" d="M613.8,-727.07C653.15,-716.66 716.51,-699.66 770.96,-684 774.02,-683.12 777.18,-682.2 780.36,-681.26"/>
<polygon fill="black" stroke="black" points="781.12,-684.68 789.7,-678.47 779.12,-677.98 781.12,-684.68"/>
</g>
<!-- 002_0.MES&#45;&gt;002.MES -->
<g id="edge40" class="edge">
<title>002_0.MES&#45;&gt;002.MES</title>
<path fill="none" stroke="black" d="M581.85,-684.1C582.61,-691.37 582.87,-700.04 582.61,-708.24"/>
<polygon fill="black" stroke="black" points="579.12,-707.98 581.97,-718.19 586.11,-708.43 579.12,-707.98"/>
</g>
<!-- 002_1.MES&#45;&gt;002.MES -->
<g id="edge41" class="edge">
<title>002_1.MES&#45;&gt;002.MES</title>
<path fill="none" stroke="black" d="M682.36,-682.8C663.76,-693.49 637.59,-707.63 615.8,-718.78"/>
<polygon fill="black" stroke="black" points="614.51,-715.51 607.17,-723.15 617.67,-721.76 614.51,-715.51"/>
</g>
<!-- 102.MES -->
<g id="node17" class="node">
<title>102.MES</title>
<ellipse fill="none" stroke="black" cx="826.96" cy="-594" rx="46.75" ry="18"/>
<text text-anchor="middle" x="826.96" y="-588.95" font-family="Times,serif" font-size="14.00">102.MES</text>
</g>
<!-- 101.MES&#45;&gt;102.MES -->
<g id="edge42" class="edge">
<title>101.MES&#45;&gt;102.MES</title>
<path fill="none" stroke="black" d="M826.96,-647.7C826.96,-640.41 826.96,-631.73 826.96,-623.54"/>
<polygon fill="black" stroke="black" points="830.46,-623.62 826.96,-613.62 823.46,-623.62 830.46,-623.62"/>
</g>
<!-- 103.MES -->
<g id="node18" class="node">
<title>103.MES</title>
<ellipse fill="none" stroke="black" cx="826.96" cy="-522" rx="46.75" ry="18"/>
<text text-anchor="middle" x="826.96" y="-516.95" font-family="Times,serif" font-size="14.00">103.MES</text>
</g>
<!-- 102.MES&#45;&gt;103.MES -->
<g id="edge43" class="edge">
<title>102.MES&#45;&gt;103.MES</title>
<path fill="none" stroke="black" d="M826.96,-575.7C826.96,-568.41 826.96,-559.73 826.96,-551.54"/>
<polygon fill="black" stroke="black" points="830.46,-551.62 826.96,-541.62 823.46,-551.62 830.46,-551.62"/>
</g>
<!-- 104_0A.MES -->
<g id="node19" class="node">
<title>104_0A.MES</title>
<ellipse fill="none" stroke="black" cx="826.96" cy="-450" rx="62.61" ry="18"/>
<text text-anchor="middle" x="826.96" y="-444.95" font-family="Times,serif" font-size="14.00">104_0A.MES</text>
</g>
<!-- 103.MES&#45;&gt;104_0A.MES -->
<g id="edge44" class="edge">
<title>103.MES&#45;&gt;104_0A.MES</title>
<path fill="none" stroke="black" d="M826.96,-503.7C826.96,-496.41 826.96,-487.73 826.96,-479.54"/>
<polygon fill="black" stroke="black" points="830.46,-479.62 826.96,-469.62 823.46,-479.62 830.46,-479.62"/>
</g>
<!-- 104MAP.MES -->
<g id="node20" class="node">
<title>104MAP.MES</title>
<ellipse fill="none" stroke="black" cx="826.96" cy="-378" rx="66.19" ry="18"/>
<text text-anchor="middle" x="826.96" y="-372.95" font-family="Times,serif" font-size="14.00">104MAP.MES</text>
</g>
<!-- 104_0A.MES&#45;&gt;104MAP.MES -->
<g id="edge45" class="edge">
<title>104_0A.MES&#45;&gt;104MAP.MES</title>
<path fill="none" stroke="black" d="M821.04,-431.7C820.29,-424.41 820.05,-415.73 820.31,-407.54"/>
<polygon fill="black" stroke="black" points="823.8,-407.82 820.96,-397.61 816.81,-407.36 823.8,-407.82"/>
</g>
<!-- 105.MES -->
<g id="node21" class="node">
<title>105.MES</title>
<ellipse fill="none" stroke="black" cx="842.96" cy="-234" rx="46.75" ry="18"/>
<text text-anchor="middle" x="842.96" y="-228.95" font-family="Times,serif" font-size="14.00">105.MES</text>
</g>
<!-- 104_0A.MES&#45;&gt;105.MES -->
<g id="edge46" class="edge">
<title>104_0A.MES&#45;&gt;105.MES</title>
<path fill="none" stroke="black" d="M793.4,-434.4C777.78,-425.7 760.76,-412.99 751.96,-396 743.41,-379.49 747.59,-303.48 756.96,-288 766.56,-272.12 782.92,-260.31 798.81,-251.92"/>
<polygon fill="black" stroke="black" points="800.29,-255.09 807.75,-247.56 797.22,-248.8 800.29,-255.09"/>
</g>
<!-- 104MAP.MES&#45;&gt;104_0A.MES -->
<g id="edge47" class="edge">
<title>104MAP.MES&#45;&gt;104_0A.MES</title>
<path fill="none" stroke="black" d="M832.85,-396.1C833.61,-403.37 833.87,-412.04 833.61,-420.24"/>
<polygon fill="black" stroke="black" points="830.12,-419.98 832.97,-430.19 837.11,-420.43 830.12,-419.98"/>
</g>
<!-- 104_0B.MES -->
<g id="node22" class="node">
<title>104_0B.MES</title>
<ellipse fill="none" stroke="black" cx="957.96" cy="-306" rx="62.1" ry="18"/>
<text text-anchor="middle" x="957.96" y="-300.95" font-family="Times,serif" font-size="14.00">104_0B.MES</text>
</g>
<!-- 104MAP.MES&#45;&gt;104_0B.MES -->
<g id="edge48" class="edge">
<title>104MAP.MES&#45;&gt;104_0B.MES</title>
<path fill="none" stroke="black" d="M856.03,-361.46C874.73,-351.47 899.24,-338.38 919.54,-327.53"/>
<polygon fill="black" stroke="black" points="920.91,-330.76 928.08,-322.96 917.61,-324.59 920.91,-330.76"/>
</g>
<!-- 104_1.MES -->
<g id="node23" class="node">
<title>104_1.MES</title>
<ellipse fill="none" stroke="black" cx="821.96" cy="-306" rx="55.96" ry="18"/>
<text text-anchor="middle" x="821.96" y="-300.95" font-family="Times,serif" font-size="14.00">104_1.MES</text>
</g>
<!-- 104MAP.MES&#45;&gt;104_1.MES -->
<g id="edge49" class="edge">
<title>104MAP.MES&#45;&gt;104_1.MES</title>
<path fill="none" stroke="black" d="M819.81,-359.7C818.53,-352.41 817.67,-343.73 817.35,-335.54"/>
<polygon fill="black" stroke="black" points="820.85,-335.6 817.29,-325.62 813.85,-335.64 820.85,-335.6"/>
</g>
<!-- 106_0A.MES -->
<g id="node24" class="node">
<title>106_0A.MES</title>
<ellipse fill="none" stroke="black" cx="842.96" cy="-162" rx="62.61" ry="18"/>
<text text-anchor="middle" x="842.96" y="-156.95" font-family="Times,serif" font-size="14.00">106_0A.MES</text>
</g>
<!-- 105.MES&#45;&gt;106_0A.MES -->
<g id="edge52" class="edge">
<title>105.MES&#45;&gt;106_0A.MES</title>
<path fill="none" stroke="black" d="M842.96,-215.7C842.96,-208.41 842.96,-199.73 842.96,-191.54"/>
<polygon fill="black" stroke="black" points="846.46,-191.62 842.96,-181.62 839.46,-191.62 846.46,-191.62"/>
</g>
<!-- 104_0B.MES&#45;&gt;105.MES -->
<g id="edge50" class="edge">
<title>104_0B.MES&#45;&gt;105.MES</title>
<path fill="none" stroke="black" d="M932.15,-289.29C915.72,-279.29 894.28,-266.24 876.53,-255.44"/>
<polygon fill="black" stroke="black" points="878.76,-252.7 868.4,-250.49 875.12,-258.68 878.76,-252.7"/>
</g>
<!-- 104_1.MES&#45;&gt;104MAP.MES -->
<g id="edge51" class="edge">
<title>104_1.MES&#45;&gt;104MAP.MES</title>
<path fill="none" stroke="black" d="M829.07,-324.1C830.35,-331.37 831.23,-340.04 831.56,-348.24"/>
<polygon fill="black" stroke="black" points="828.06,-348.21 831.63,-358.18 835.06,-348.16 828.06,-348.21"/>
</g>
<!-- 106MAP.MES -->
<g id="node25" class="node">
<title>106MAP.MES</title>
<ellipse fill="none" stroke="black" cx="842.96" cy="-90" rx="66.19" ry="18"/>
<text text-anchor="middle" x="842.96" y="-84.95" font-family="Times,serif" font-size="14.00">106MAP.MES</text>
</g>
<!-- 106_0A.MES&#45;&gt;106MAP.MES -->
<g id="edge53" class="edge">
<title>106_0A.MES&#45;&gt;106MAP.MES</title>
<path fill="none" stroke="black" d="M842.96,-143.7C842.96,-136.41 842.96,-127.73 842.96,-119.54"/>
<polygon fill="black" stroke="black" points="846.46,-119.62 842.96,-109.62 839.46,-119.62 846.46,-119.62"/>
</g>
<!-- 106_0.MES -->
<g id="node26" class="node">
<title>106_0.MES</title>
<ellipse fill="none" stroke="black" cx="517.96" cy="-18" rx="55.96" ry="18"/>
<text text-anchor="middle" x="517.96" y="-12.95" font-family="Times,serif" font-size="14.00">106_0.MES</text>
</g>
<!-- 106MAP.MES&#45;&gt;106_0.MES -->
<g id="edge54" class="edge">
<title>106MAP.MES&#45;&gt;106_0.MES</title>
<path fill="none" stroke="black" d="M789.49,-78.99C736.8,-68.91 654.08,-52.54 582.96,-36 578.97,-35.07 574.86,-34.08 570.73,-33.06"/>
<polygon fill="black" stroke="black" points="571.85,-29.73 561.3,-30.68 570.14,-36.52 571.85,-29.73"/>
</g>
<!-- 106_1.MES -->
<g id="node27" class="node">
<title>106_1.MES</title>
<ellipse fill="none" stroke="black" cx="647.96" cy="-18" rx="55.96" ry="18"/>
<text text-anchor="middle" x="647.96" y="-12.95" font-family="Times,serif" font-size="14.00">106_1.MES</text>
</g>
<!-- 106MAP.MES&#45;&gt;106_1.MES -->
<g id="edge55" class="edge">
<title>106MAP.MES&#45;&gt;106_1.MES</title>
<path fill="none" stroke="black" d="M803.97,-75C772.47,-63.7 728.06,-47.75 694.67,-35.77"/>
<polygon fill="black" stroke="black" points="696.27,-32.62 685.67,-32.54 693.9,-39.21 696.27,-32.62"/>
</g>
<!-- 106_2.MES -->
<g id="node28" class="node">
<title>106_2.MES</title>
<ellipse fill="none" stroke="black" cx="777.96" cy="-18" rx="55.96" ry="18"/>
<text text-anchor="middle" x="777.96" y="-12.95" font-family="Times,serif" font-size="14.00">106_2.MES</text>
</g>
<!-- 106MAP.MES&#45;&gt;106_2.MES -->
<g id="edge56" class="edge">
<title>106MAP.MES&#45;&gt;106_2.MES</title>
<path fill="none" stroke="black" d="M827.22,-72.05C819.28,-63.5 809.51,-52.97 800.76,-43.56"/>
<polygon fill="black" stroke="black" points="803.5,-41.36 794.13,-36.42 798.37,-46.13 803.5,-41.36"/>
</g>
<!-- 106_3.MES -->
<g id="node29" class="node">
<title>106_3.MES</title>
<ellipse fill="none" stroke="black" cx="907.96" cy="-18" rx="55.96" ry="18"/>
<text text-anchor="middle" x="907.96" y="-12.95" font-family="Times,serif" font-size="14.00">106_3.MES</text>
</g>
<!-- 106MAP.MES&#45;&gt;106_3.MES -->
<g id="edge57" class="edge">
<title>106MAP.MES&#45;&gt;106_3.MES</title>
<path fill="none" stroke="black" d="M858.69,-72.05C866.63,-63.5 876.41,-52.97 885.16,-43.56"/>
<polygon fill="black" stroke="black" points="887.55,-46.13 891.79,-36.42 882.42,-41.36 887.55,-46.13"/>
</g>
<!-- 107.MES -->
<g id="node30" class="node">
<title>107.MES</title>
<ellipse fill="none" stroke="black" cx="1028.96" cy="-18" rx="46.75" ry="18"/>
<text text-anchor="middle" x="1028.96" y="-12.95" font-family="Times,serif" font-size="14.00">107.MES</text>
</g>
<!-- 106MAP.MES&#45;&gt;107.MES -->
<g id="edge58" class="edge">
<title>106MAP.MES&#45;&gt;107.MES</title>
<path fill="none" stroke="black" d="M880.6,-74.83C910.98,-63.4 953.77,-47.3 985.59,-35.32"/>
<polygon fill="black" stroke="black" points="986.8,-38.6 994.93,-31.81 984.34,-32.05 986.8,-38.6"/>
</g>
<!-- 108.MES -->
<g id="node31" class="node">
<title>108.MES</title>
<ellipse fill="none" stroke="black" cx="1139.96" cy="-18" rx="46.75" ry="18"/>
<text text-anchor="middle" x="1139.96" y="-12.95" font-family="Times,serif" font-size="14.00">108.MES</text>
</g>
<!-- 106MAP.MES&#45;&gt;108.MES -->
<g id="edge59" class="edge">
<title>106MAP.MES&#45;&gt;108.MES</title>
<path fill="none" stroke="black" d="M895.66,-78.79C944.89,-68.94 1020.29,-53.04 1084.96,-36 1087.89,-35.23 1090.9,-34.4 1093.93,-33.54"/>
<polygon fill="black" stroke="black" points="1094.81,-36.93 1103.42,-30.75 1092.84,-30.21 1094.81,-36.93"/>
</g>
</g>
</svg>
