<?xml version="1.0" encoding="UTF-8" standalone="no"?>
<!DOCTYPE svg PUBLIC "-//W3C//DTD SVG 1.1//EN"
 "http://www.w3.org/Graphics/SVG/1.1/DTD/svg11.dtd">
<!-- Generated by graphviz version 12.2.1 (0)
 -->
<!-- Pages: 1 -->
<svg width="1142pt" height="332pt"
 viewBox="0.00 0.00 1141.70 332.00" xmlns="http://www.w3.org/2000/svg" xmlns:xlink="http://www.w3.org/1999/xlink">
<g id="graph0" class="graph" transform="scale(1 1) rotate(0) translate(4 328)">
<polygon fill="white" stroke="none" points="-4,4 -4,-328 1137.7,-328 1137.7,4 -4,4"/>
<!-- START.MES -->
<g id="node1" class="node">
<title>START.MES</title>
<ellipse fill="none" stroke="black" cx="575.96" cy="-306" rx="61.08" ry="18"/>
<text text-anchor="middle" x="575.96" y="-300.95" font-family="Times,serif" font-size="14.00">START.MES</text>
</g>
<!-- SELECT.MES -->
<g id="node2" class="node">
<title>SELECT.MES</title>
<ellipse fill="none" stroke="black" cx="575.96" cy="-234" rx="66.19" ry="18"/>
<text text-anchor="middle" x="575.96" y="-228.95" font-family="Times,serif" font-size="14.00">SELECT.MES</text>
</g>
<!-- START.MES&#45;&gt;SELECT.MES -->
<g id="edge1" class="edge">
<title>START.MES&#45;&gt;SELECT.MES</title>
<path fill="none" stroke="black" d="M575.96,-287.7C575.96,-280.41 575.96,-271.73 575.96,-263.54"/>
<polygon fill="black" stroke="black" points="579.46,-263.62 575.96,-253.62 572.46,-263.62 579.46,-263.62"/>
</g>
<!-- 000.MES -->
<g id="node3" class="node">
<title>000.MES</title>
<ellipse fill="none" stroke="black" cx="575.96" cy="-162" rx="46.75" ry="18"/>
<text text-anchor="middle" x="575.96" y="-156.95" font-family="Times,serif" font-size="14.00">000.MES</text>
</g>
<!-- SELECT.MES&#45;&gt;000.MES -->
<g id="edge2" class="edge">
<title>SELECT.MES&#45;&gt;000.MES</title>
<path fill="none" stroke="black" d="M575.96,-215.7C575.96,-208.41 575.96,-199.73 575.96,-191.54"/>
<polygon fill="black" stroke="black" points="579.46,-191.62 575.96,-181.62 572.46,-191.62 579.46,-191.62"/>
</g>
<!-- 001.MES -->
<g id="node4" class="node">
<title>001.MES</title>
<ellipse fill="none" stroke="black" cx="575.96" cy="-90" rx="46.75" ry="18"/>
<text text-anchor="middle" x="575.96" y="-84.95" font-family="Times,serif" font-size="14.00">001.MES</text>
</g>
<!-- 000.MES&#45;&gt;001.MES -->
<g id="edge3" class="edge">
<title>000.MES&#45;&gt;001.MES</title>
<path fill="none" stroke="black" d="M575.96,-143.7C575.96,-136.41 575.96,-127.73 575.96,-119.54"/>
<polygon fill="black" stroke="black" points="579.46,-119.62 575.96,-109.62 572.46,-119.62 579.46,-119.62"/>
</g>
<!-- 001_0.MES -->
<g id="node5" class="node">
<title>001_0.MES</title>
<ellipse fill="none" stroke="black" cx="55.96" cy="-18" rx="55.96" ry="18"/>
<text text-anchor="middle" x="55.96" y="-12.95" font-family="Times,serif" font-size="14.00">001_0.MES</text>
</g>
<!-- 001.MES&#45;&gt;001_0.MES -->
<g id="edge4" class="edge">
<title>001.MES&#45;&gt;001_0.MES</title>
<path fill="none" stroke="black" d="M530.11,-85.79C447.69,-79.55 269.26,-63.89 120.96,-36 116.69,-35.2 112.3,-34.27 107.9,-33.27"/>
<polygon fill="black" stroke="black" points="109.04,-29.94 98.5,-31.02 107.41,-36.75 109.04,-29.94"/>
</g>
<!-- 001_1.MES -->
<g id="node6" class="node">
<title>001_1.MES</title>
<ellipse fill="none" stroke="black" cx="185.96" cy="-18" rx="55.96" ry="18"/>
<text text-anchor="middle" x="185.96" y="-12.95" font-family="Times,serif" font-size="14.00">001_1.MES</text>
</g>
<!-- 001.MES&#45;&gt;001_1.MES -->
<g id="edge5" class="edge">
<title>001.MES&#45;&gt;001_1.MES</title>
<path fill="none" stroke="black" d="M532.08,-83.18C469.41,-74.57 350.79,-57.15 250.96,-36 246.9,-35.14 242.71,-34.19 238.51,-33.19"/>
<polygon fill="black" stroke="black" points="239.45,-29.82 228.9,-30.83 237.77,-36.62 239.45,-29.82"/>
</g>
<!-- 001_2.MES -->
<g id="node7" class="node">
<title>001_2.MES</title>
<ellipse fill="none" stroke="black" cx="315.96" cy="-18" rx="55.96" ry="18"/>
<text text-anchor="middle" x="315.96" y="-12.95" font-family="Times,serif" font-size="14.00">001_2.MES</text>
</g>
<!-- 001.MES&#45;&gt;001_2.MES -->
<g id="edge6" class="edge">
<title>001.MES&#45;&gt;001_2.MES</title>
<path fill="none" stroke="black" d="M538.43,-78.9C493.85,-66.89 419.18,-46.79 368.78,-33.22"/>
<polygon fill="black" stroke="black" points="369.81,-29.87 359.24,-30.65 367.99,-36.63 369.81,-29.87"/>
</g>
<!-- 001_3.MES -->
<g id="node8" class="node">
<title>001_3.MES</title>
<ellipse fill="none" stroke="black" cx="445.96" cy="-18" rx="55.96" ry="18"/>
<text text-anchor="middle" x="445.96" y="-12.95" font-family="Times,serif" font-size="14.00">001_3.MES</text>
</g>
<!-- 001.MES&#45;&gt;001_3.MES -->
<g id="edge7" class="edge">
<title>001.MES&#45;&gt;001_3.MES</title>
<path fill="none" stroke="black" d="M549.65,-74.83C530.65,-64.6 504.71,-50.64 483.54,-39.23"/>
<polygon fill="black" stroke="black" points="485.37,-36.25 474.9,-34.59 482.05,-42.41 485.37,-36.25"/>
</g>
<!-- 001_4.MES -->
<g id="node9" class="node">
<title>001_4.MES</title>
<ellipse fill="none" stroke="black" cx="575.96" cy="-18" rx="55.96" ry="18"/>
<text text-anchor="middle" x="575.96" y="-12.95" font-family="Times,serif" font-size="14.00">001_4.MES</text>
</g>
<!-- 001.MES&#45;&gt;001_4.MES -->
<g id="edge8" class="edge">
<title>001.MES&#45;&gt;001_4.MES</title>
<path fill="none" stroke="black" d="M575.96,-71.7C575.96,-64.41 575.96,-55.73 575.96,-47.54"/>
<polygon fill="black" stroke="black" points="579.46,-47.62 575.96,-37.62 572.46,-47.62 579.46,-47.62"/>
</g>
<!-- 001_5.MES -->
<g id="node10" class="node">
<title>001_5.MES</title>
<ellipse fill="none" stroke="black" cx="705.96" cy="-18" rx="55.96" ry="18"/>
<text text-anchor="middle" x="705.96" y="-12.95" font-family="Times,serif" font-size="14.00">001_5.MES</text>
</g>
<!-- 001.MES&#45;&gt;001_5.MES -->
<g id="edge9" class="edge">
<title>001.MES&#45;&gt;001_5.MES</title>
<path fill="none" stroke="black" d="M602.27,-74.83C621.27,-64.6 647.2,-50.64 668.38,-39.23"/>
<polygon fill="black" stroke="black" points="669.87,-42.41 677.01,-34.59 666.55,-36.25 669.87,-42.41"/>
</g>
<!-- 001_6.MES -->
<g id="node11" class="node">
<title>001_6.MES</title>
<ellipse fill="none" stroke="black" cx="835.96" cy="-18" rx="55.96" ry="18"/>
<text text-anchor="middle" x="835.96" y="-12.95" font-family="Times,serif" font-size="14.00">001_6.MES</text>
</g>
<!-- 001.MES&#45;&gt;001_6.MES -->
<g id="edge10" class="edge">
<title>001.MES&#45;&gt;001_6.MES</title>
<path fill="none" stroke="black" d="M613.49,-78.9C658.07,-66.89 732.74,-46.79 783.14,-33.22"/>
<polygon fill="black" stroke="black" points="783.93,-36.63 792.67,-30.65 782.11,-29.87 783.93,-36.63"/>
</g>
<!-- 001_7.MES -->
<g id="node12" class="node">
<title>001_7.MES</title>
<ellipse fill="none" stroke="black" cx="965.96" cy="-18" rx="55.96" ry="18"/>
<text text-anchor="middle" x="965.96" y="-12.95" font-family="Times,serif" font-size="14.00">001_7.MES</text>
</g>
<!-- 001.MES&#45;&gt;001_7.MES -->
<g id="edge11" class="edge">
<title>001.MES&#45;&gt;001_7.MES</title>
<path fill="none" stroke="black" d="M619.83,-83.18C682.5,-74.57 801.13,-57.15 900.96,-36 905.02,-35.14 909.21,-34.19 913.41,-33.19"/>
<polygon fill="black" stroke="black" points="914.14,-36.62 923.02,-30.83 912.47,-29.82 914.14,-36.62"/>
</g>
<!-- 002.MES -->
<g id="node13" class="node">
<title>002.MES</title>
<ellipse fill="none" stroke="black" cx="1086.96" cy="-18" rx="46.75" ry="18"/>
<text text-anchor="middle" x="1086.96" y="-12.95" font-family="Times,serif" font-size="14.00">002.MES</text>
</g>
<!-- 001.MES&#45;&gt;002.MES -->
<g id="edge12" class="edge">
<title>001.MES&#45;&gt;002.MES</title>
<path fill="none" stroke="black" d="M622.25,-86.35C704.99,-81.01 883.42,-66.73 1030.96,-36 1034.49,-35.26 1038.12,-34.41 1041.75,-33.47"/>
<polygon fill="black" stroke="black" points="1042.38,-36.93 1051.1,-30.9 1040.53,-30.18 1042.38,-36.93"/>
</g>
</g>
</svg>
