<?xml version="1.0" encoding="UTF-8" standalone="no"?>
<!DOCTYPE svg PUBLIC "-//W3C//DTD SVG 1.1//EN"
 "http://www.w3.org/Graphics/SVG/1.1/DTD/svg11.dtd">
<!-- Generated by graphviz version 12.2.1 (0)
 -->
<!-- Pages: 1 -->
<svg width="140pt" height="260pt"
 viewBox="0.00 0.00 140.39 260.00" xmlns="http://www.w3.org/2000/svg" xmlns:xlink="http://www.w3.org/1999/xlink">
<g id="graph0" class="graph" transform="scale(1 1) rotate(0) translate(4 256)">
<polygon fill="white" stroke="none" points="-4,4 -4,-256 136.39,-256 136.39,4 -4,4"/>
<!-- START.MES -->
<g id="node1" class="node">
<title>START.MES</title>
<ellipse fill="none" stroke="black" cx="66.19" cy="-234" rx="61.08" ry="18"/>
<text text-anchor="middle" x="66.19" y="-228.95" font-family="Times,serif" font-size="14.00">START.MES</text>
</g>
<!-- SELECT.MES -->
<g id="node2" class="node">
<title>SELECT.MES</title>
<ellipse fill="none" stroke="black" cx="66.19" cy="-162" rx="66.19" ry="18"/>
<text text-anchor="middle" x="66.19" y="-156.95" font-family="Times,serif" font-size="14.00">SELECT.MES</text>
</g>
<!-- START.MES&#45;&gt;SELECT.MES -->
<g id="edge1" class="edge">
<title>START.MES&#45;&gt;SELECT.MES</title>
<path fill="none" stroke="black" d="M66.19,-215.7C66.19,-208.41 66.19,-199.73 66.19,-191.54"/>
<polygon fill="black" stroke="black" points="69.69,-191.62 66.19,-181.62 62.69,-191.62 69.69,-191.62"/>
</g>
<!-- 000.MES -->
<g id="node3" class="node">
<title>000.MES</title>
<ellipse fill="none" stroke="black" cx="66.19" cy="-90" rx="46.75" ry="18"/>
<text text-anchor="middle" x="66.19" y="-84.95" font-family="Times,serif" font-size="14.00">000.MES</text>
</g>
<!-- SELECT.MES&#45;&gt;000.MES -->
<g id="edge2" class="edge">
<title>SELECT.MES&#45;&gt;000.MES</title>
<path fill="none" stroke="black" d="M66.19,-143.7C66.19,-136.41 66.19,-127.73 66.19,-119.54"/>
<polygon fill="black" stroke="black" points="69.69,-119.62 66.19,-109.62 62.69,-119.62 69.69,-119.62"/>
</g>
<!-- 001.MES -->
<g id="node4" class="node">
<title>001.MES</title>
<ellipse fill="none" stroke="black" cx="66.19" cy="-18" rx="46.75" ry="18"/>
<text text-anchor="middle" x="66.19" y="-12.95" font-family="Times,serif" font-size="14.00">001.MES</text>
</g>
<!-- 000.MES&#45;&gt;001.MES -->
<g id="edge3" class="edge">
<title>000.MES&#45;&gt;001.MES</title>
<path fill="none" stroke="black" d="M66.19,-71.7C66.19,-64.41 66.19,-55.73 66.19,-47.54"/>
<polygon fill="black" stroke="black" points="69.69,-47.62 66.19,-37.62 62.69,-47.62 69.69,-47.62"/>
</g>
</g>
</svg>
